<?xml version="1.0" standalone="no"?><!DOCTYPE svg PUBLIC "-//W3C//DTD SVG 1.1//EN" "http://www.w3.org/Graphics/SVG/1.1/DTD/svg11.dtd"><svg t="1777429675343" class="icon" viewBox="0 0 1024 1024" version="1.1" xmlns="http://www.w3.org/2000/svg" p-id="9127" xmlns:xlink="http://www.w3.org/1999/xlink" width="200" height="200"><path d="M469.333 384h384a42.667 42.667 0 1 0 0-85.333h-384V384zM256 298.667h-85.333a42.667 42.667 0 0 0 0 85.333H256v-85.333zM554.667 640h-384a42.667 42.667 0 0 0 0 85.333h384V640zM768 725.333h85.333a42.667 42.667 0 0 0 0-85.333H768v85.333zM640 554.667h42.667q42.666 0 42.666 42.666V768q0 42.667-42.666 42.667H640q-42.667 0-42.667-42.667V597.333q0-42.666 42.667-42.666zM341.333 213.333H384q42.667 0 42.667 42.667v170.667q0 42.666-42.667 42.666h-42.667q-42.666 0-42.666-42.666V256q0-42.667 42.666-42.667z" p-id="9128" fill="#515151"></path></svg>